<svg xmlns="http://www.w3.org/2000/svg" width="109" height="36" fill="none"><path fill="#fff" d="M48.08 23.54v-2.17l5.04-4.89h-4.87v-2.02h7.88v2.16l-5.05 4.9h5.23v2.02h-8.23zM63.3 13.3c-.58 0-1-.12-1.23-.35a1.27 1.27 0 0 1-.33-.88v-.51c0-.35.1-.65.33-.88.24-.24.65-.35 1.23-.35.59 0 1 .11 1.22.35.23.23.35.53.35.88v.5c0 .35-.12.64-.35.89-.23.23-.63.35-1.22.35zm-4.18 8.22H62v-5.04h-2.88v-2.02h5.49v7.06h2.67v2.02h-8.16v-2.02zM69.2 21.52H72v-8.98H69.2v-2.02h5.38v11h2.78v2.02h-8.16v-2.02zM87.13 23.54c-.54 0-.98-.14-1.3-.4a1.77 1.77 0 0 1-.58-1.2h-.1c-.16.6-.48 1.05-.98 1.35-.48.3-1.07.46-1.77.46-.88 0-1.6-.24-2.13-.7a2.58 2.58 0 0 1-.8-2.01c0-.95.35-1.65 1.04-2.11.7-.46 1.71-.69 3.05-.69h1.46v-.45c0-.54-.13-.95-.39-1.22-.25-.28-.67-.42-1.27-.42-.55 0-1 .1-1.33.32a3.1 3.1 0 0 0-.88.82l-1.43-1.26c.3-.52.78-.94 1.43-1.27.65-.34 1.5-.51 2.51-.51 1.25 0 2.21.29 2.9.86.7.56 1.06 1.42 1.06 2.57v3.98h1v1.88h-1.5zm-3.75-1.5c.46 0 .85-.1 1.16-.33.32-.22.48-.55.48-.97v-1.09h-1.4c-1.06 0-1.6.36-1.6 1.07v.36c0 .31.13.55.38.72.24.16.57.24.98.24zM90.25 23.54v-9.08h2.6v1.65h.11c.1-.25.24-.5.39-.72a2.57 2.57 0 0 1 1.3-.98c.3-.1.62-.16.99-.16.43 0 .83.08 1.2.23.36.14.67.36.92.65.26.3.46.65.6 1.07.16.42.23.91.23 1.46v5.88H96V18c0-1.17-.51-1.76-1.53-1.76-.2 0-.4.03-.6.1-.19.04-.36.12-.51.24-.15.1-.28.24-.37.4-.08.17-.12.36-.12.58v5.97h-2.6zM105.64 23.54c-.94 0-1.64-.25-2.1-.74a2.66 2.66 0 0 1-.68-1.88v-4.44h-2.46v-2.02h1.6c.39 0 .66-.08.83-.23.16-.15.24-.43.24-.84v-2.13h2.4v3.2H109v2.02h-3.54v5.04H109v2.02h-3.36z"/><g clip-path="url(#clip0)"><path fill="#CDE0D9" d="M19.95 3.51L6.6.65l.33 6.2 13 3.15V3.5zM22.37 35.54v-6l12.25-3.94v5.38l-12.25 4.56z"/><path fill="#23CB8D" d="M21.87 9.59V2.95L35.92.08v2.87L26.58 19.2l-4.7 1.08v-3.92l5.14-8.07-5.15 1.3zM20.34 36v-6.12l-5.57-1.67 4.87-6.4v-3.26l-3.9-1.1-9.16 11.97v2.69L20.34 36z"/></g><defs><clipPath id="clip0"><path fill="#fff" d="M0 0h35.92v35.92H0z" transform="translate(0 .08)"/></clipPath></defs></svg>