<svg xmlns="http://www.w3.org/2000/svg" width="33" height="33" fill="none"><path fill="#DADADA" fill-rule="evenodd" d="M16.5 0a16.5 16.5 0 1 0 0 33 16.5 16.5 0 0 0 0-33zM7.92 13.67h3.74V24.9H7.92V13.67zm3.99-3.48c-.03-1.1-.82-1.94-2.1-1.94-1.27 0-2.11.84-2.11 1.94 0 1.08.81 1.94 2.07 1.94h.02c1.3 0 2.12-.86 2.12-1.94zm8.93 3.21c2.46 0 4.3 1.6 4.3 5.06v6.44h-3.73V18.9c0-1.5-.54-2.54-1.9-2.54-1.03 0-1.65.7-1.92 1.37-.1.24-.12.57-.12.9v6.28h-3.74s.05-10.18 0-11.23h3.74v1.59a3.71 3.71 0 0 1 3.37-1.86z" clip-rule="evenodd"/></svg>