<svg xmlns="http://www.w3.org/2000/svg" width="165" height="49" fill="none"><path fill="#003C51" d="M65.58 32v-2.95l6.9-6.67h-6.66v-2.76h10.76v2.95l-6.9 6.67h7.14V32H65.58zm20.78-13.97c-.8 0-1.36-.16-1.68-.48-.3-.33-.46-.73-.46-1.2v-.7c0-.47.15-.87.46-1.2.32-.31.88-.47 1.68-.47.8 0 1.35.16 1.65.48.32.32.48.72.48 1.2v.7c0 .46-.16.86-.48 1.2-.3.31-.85.47-1.65.47zm-5.71 11.21h3.93v-6.86h-3.93v-2.76h7.48v9.62h3.65V32H80.65v-2.76zm13.76 0h3.8V17h-3.8v-2.76h7.35v15h3.79V32H94.4v-2.76zM118.86 32c-.74 0-1.33-.18-1.78-.55a2.41 2.41 0 0 1-.79-1.63h-.12a3.02 3.02 0 0 1-1.34 1.84c-.66.42-1.47.63-2.43.63-1.2 0-2.16-.32-2.9-.96a3.51 3.51 0 0 1-1.08-2.74c0-1.3.47-2.25 1.42-2.88.94-.62 2.32-.93 4.15-.93h1.99v-.63c0-.73-.18-1.29-.53-1.65-.33-.39-.91-.58-1.73-.58-.75 0-1.36.14-1.82.43-.46.29-.86.67-1.2 1.13l-1.94-1.73a4.6 4.6 0 0 1 1.94-1.73c.9-.46 2.04-.7 3.43-.7 1.7 0 3.02.4 3.96 1.18.96.77 1.44 1.94 1.44 3.5v5.43h1.37V32h-2.04zm-5.11-2.04c.62 0 1.15-.15 1.58-.46.43-.3.65-.74.65-1.32V26.7h-1.9c-1.45 0-2.18.48-2.18 1.46v.48c0 .43.17.76.5.98.34.23.79.34 1.35.34zm9.37 2.04V19.62h3.55v2.25h.15c.14-.35.32-.68.53-.98a3.5 3.5 0 0 1 1.77-1.35c.4-.14.85-.21 1.35-.21.59 0 1.13.1 1.63.31.5.2.92.49 1.27.89s.63.89.82 1.46c.2.58.3 1.24.3 2V32h-3.54v-7.54c0-1.6-.7-2.4-2.1-2.4-.26 0-.53.04-.8.12-.26.07-.5.18-.7.34-.21.14-.38.33-.5.55-.12.23-.17.49-.17.8V32h-3.56zm21 0c-1.29 0-2.24-.34-2.86-1a3.63 3.63 0 0 1-.94-2.58v-6.04h-3.36v-2.76h2.19c.52 0 .9-.1 1.12-.32.23-.2.34-.59.34-1.15v-2.9h3.26v4.37h4.83v2.76h-4.83v6.86h4.83V32h-4.59z"/><g clip-path="url(#clip0)"><path fill="#CDE0D9" d="M27.21 4.68L9.01.77l.46 8.46 17.74 4.3V4.68zM30.51 48.37V40.2l16.72-5.38v7.34L30.5 48.37z"/><path fill="#23CB8D" d="M29.84 12.97V3.9L49 0v3.91L36.26 26.07l-6.42 1.47V22.2l7.03-11-7.03 1.78zM27.75 49v-8.35l-7.6-2.27 6.64-8.74V25.2l-5.32-1.5-12.5 16.32v3.67L27.76 49z"/></g><defs><clipPath id="clip0"><path fill="#fff" d="M0 0h49v49H0z"/></clipPath></defs></svg>