<?xml version="1.0" encoding="utf-8"?><svg xmlns="http://www.w3.org/2000/svg" xmlns:xlink="http://www.w3.org/1999/xlink"><symbol viewBox="0 0 109 36" id="footer_logo" xmlns="http://www.w3.org/2000/svg"><path d="M48.08 23.54v-2.17l5.04-4.89h-4.87v-2.02h7.88v2.16l-5.05 4.9h5.23v2.02h-8.23zM63.3 13.3c-.58 0-1-.12-1.23-.35a1.27 1.27 0 01-.33-.88v-.51c0-.35.1-.65.33-.88.24-.24.65-.35 1.23-.35.59 0 1 .11 1.22.35.23.23.35.53.35.88v.5c0 .35-.12.64-.35.89-.23.23-.63.35-1.22.35zm-4.18 8.22H62v-5.04h-2.88v-2.02h5.49v7.06h2.67v2.02h-8.16v-2.02zm10.08 0H72v-8.98h-2.8v-2.02h5.38v11h2.78v2.02H69.2v-2.02zm17.93 2.02c-.54 0-.98-.14-1.3-.4a1.77 1.77 0 01-.58-1.2h-.1c-.16.6-.48 1.05-.98 1.35-.48.3-1.07.46-1.77.46-.88 0-1.6-.24-2.13-.7a2.58 2.58 0 01-.8-2.01c0-.95.35-1.65 1.04-2.11.7-.46 1.71-.69 3.05-.69h1.46v-.45c0-.54-.13-.95-.39-1.22-.25-.28-.67-.42-1.27-.42-.55 0-1 .1-1.33.32a3.1 3.1 0 00-.88.82l-1.43-1.26c.3-.52.78-.94 1.43-1.27.65-.34 1.5-.51 2.51-.51 1.25 0 2.21.29 2.9.86.7.56 1.06 1.42 1.06 2.57v3.98h1v1.88h-1.5zm-3.75-1.5c.46 0 .85-.1 1.16-.33.32-.22.48-.55.48-.97v-1.09h-1.4c-1.06 0-1.6.36-1.6 1.07v.36c0 .31.13.55.38.72.24.16.57.24.98.24zm6.87 1.5v-9.08h2.6v1.65h.11c.1-.25.24-.5.39-.72a2.57 2.57 0 011.3-.98c.3-.1.62-.16.99-.16.43 0 .83.08 1.2.23.36.14.67.36.92.65.26.3.46.65.6 1.07.16.42.23.91.23 1.46v5.88H96V18c0-1.17-.51-1.76-1.53-1.76-.2 0-.4.03-.6.1-.19.04-.36.12-.51.24-.15.1-.28.24-.37.4-.08.17-.12.36-.12.58v5.97h-2.6zm15.39 0c-.94 0-1.64-.25-2.1-.74a2.66 2.66 0 01-.68-1.88v-4.44h-2.46v-2.02h1.6c.39 0 .66-.08.83-.23.16-.15.24-.43.24-.84v-2.13h2.4v3.2H109v2.02h-3.54v5.04H109v2.02h-3.36z"/><g clip-path="url(#aa)"><path d="M19.95 3.51L6.6.65l.33 6.2 13 3.15V3.5zm2.42 32.03v-6l12.25-3.94v5.38l-12.25 4.56zM21.87 9.59V2.95L35.92.08v2.87L26.58 19.2l-4.7 1.08v-3.92l5.14-8.07-5.15 1.3zM20.34 36v-6.12l-5.57-1.67 4.87-6.4v-3.26l-3.9-1.1-9.16 11.97v2.69L20.34 36z"/></g><defs><clipPath id="aa"><path d="M0 0h35.92v35.92H0z" transform="translate(0 .08)"/></clipPath></defs></symbol><symbol viewBox="0 0 33 33" id="linkedIn_icon" xmlns="http://www.w3.org/2000/svg"><path fill-rule="evenodd" d="M16.5 0a16.5 16.5 0 100 33 16.5 16.5 0 000-33zM7.92 13.67h3.74V24.9H7.92V13.67zm3.99-3.48c-.03-1.1-.82-1.94-2.1-1.94-1.27 0-2.11.84-2.11 1.94 0 1.08.81 1.94 2.07 1.94h.02c1.3 0 2.12-.86 2.12-1.94zm8.93 3.21c2.46 0 4.3 1.6 4.3 5.06v6.44h-3.73v-6c0-1.5-.54-2.54-1.9-2.54-1.03 0-1.65.7-1.92 1.37-.1.24-.12.57-.12.9v6.28h-3.74s.05-10.18 0-11.23h3.74v1.59a3.71 3.71 0 013.37-1.86z" clip-rule="evenodd"/></symbol><symbol viewBox="0 0 165 49" id="logo" xmlns="http://www.w3.org/2000/svg"><path d="M65.58 32v-2.95l6.9-6.67h-6.66v-2.76h10.76v2.95l-6.9 6.67h7.14V32H65.58zm20.78-13.97c-.8 0-1.36-.16-1.68-.48-.3-.33-.46-.73-.46-1.2v-.7c0-.47.15-.87.46-1.2.32-.31.88-.47 1.68-.47.8 0 1.35.16 1.65.48.32.32.48.72.48 1.2v.7c0 .46-.16.86-.48 1.2-.3.31-.85.47-1.65.47zm-5.71 11.21h3.93v-6.86h-3.93v-2.76h7.48v9.62h3.65V32H80.65v-2.76zm13.76 0h3.8V17h-3.8v-2.76h7.35v15h3.79V32H94.4v-2.76zM118.86 32c-.74 0-1.33-.18-1.78-.55a2.41 2.41 0 01-.79-1.63h-.12a3.02 3.02 0 01-1.34 1.84c-.66.42-1.47.63-2.43.63-1.2 0-2.16-.32-2.9-.96a3.51 3.51 0 01-1.08-2.74c0-1.3.47-2.25 1.42-2.88.94-.62 2.32-.93 4.15-.93h1.99v-.63c0-.73-.18-1.29-.53-1.65-.33-.39-.91-.58-1.73-.58-.75 0-1.36.14-1.82.43-.46.29-.86.67-1.2 1.13l-1.94-1.73a4.6 4.6 0 011.94-1.73c.9-.46 2.04-.7 3.43-.7 1.7 0 3.02.4 3.96 1.18.96.77 1.44 1.94 1.44 3.5v5.43h1.37V32h-2.04zm-5.11-2.04c.62 0 1.15-.15 1.58-.46.43-.3.65-.74.65-1.32V26.7h-1.9c-1.45 0-2.18.48-2.18 1.46v.48c0 .43.17.76.5.98.34.23.79.34 1.35.34zm9.37 2.04V19.62h3.55v2.25h.15c.14-.35.32-.68.53-.98a3.5 3.5 0 011.77-1.35c.4-.14.85-.21 1.35-.21.59 0 1.13.1 1.63.31.5.2.92.49 1.27.89s.63.89.82 1.46c.2.58.3 1.24.3 2V32h-3.54v-7.54c0-1.6-.7-2.4-2.1-2.4-.26 0-.53.04-.8.12-.26.07-.5.18-.7.34-.21.14-.38.33-.5.55-.12.23-.17.49-.17.8V32h-3.56zm21 0c-1.29 0-2.24-.34-2.86-1a3.63 3.63 0 01-.94-2.58v-6.04h-3.36v-2.76h2.19c.52 0 .9-.1 1.12-.32.23-.2.34-.59.34-1.15v-2.9h3.26v4.37h4.83v2.76h-4.83v6.86h4.83V32h-4.59z"/><g clip-path="url(#ca)"><path d="M27.21 4.68L9.01.77l.46 8.46 17.74 4.3V4.68zm3.3 43.69V40.2l16.72-5.38v7.34L30.5 48.37zM29.84 12.97V3.9L49 0v3.91L36.26 26.07l-6.42 1.47V22.2l7.03-11-7.03 1.78zM27.75 49v-8.35l-7.6-2.27 6.64-8.74V25.2l-5.32-1.5-12.5 16.32v3.67L27.76 49z"/></g><defs><clipPath id="ca"><path d="M0 0h49v49H0z"/></clipPath></defs></symbol><symbol viewBox="0 0 0 0" id="sprite" xmlns="http://www.w3.org/2000/svg"/><symbol viewBox="0 0 165 203" id="z_approaches_background" xmlns="http://www.w3.org/2000/svg"><path d="M75.9 17.6L.7 1.2l2 35.5 73.2 17.9v-37zm6.5 184.2v-34l74.8-22.2v35l-74.8 21.2zM79.9 55.4V17.6l79-16.4v16.4l-54.3 94.5-24.7 4.5v-14.5l28.9-54-29 7.3zm0 146.4v-35l-31.4-9.4L76 120.8V102l-22-6.2-51.6 68.4v15.3L80 201.8z" opacity=".1"/></symbol></svg>